<svg viewBox="0 0 800 800" preserveAspectRatio="xMidYMid meet" style="font: 10px sans-serif;" version="1.1" xmlns="http://www.w3.org/2000/svg"><g id="circle" transform="translate(400,400)"><circle r="285.7142857142857" style="fill: none;"></circle><g class="group"><title>sc:Man</title><path id="group0" d="M1.7494954273533616e-14,-285.7142857142857A285.7142857142857,285.7142857142857 0 0,1 219.86420020097452,182.46201394046457L201.39560738409267,167.13520476946553A261.7142857142857,261.7142857142857 0 0,0 1.6025378114556795e-14,-261.7142857142857Z" style="fill: rgb(31, 119, 180);"></path><text dy=".35em" transform="rotate(-25.155613279215174)translate(287.7142857142857)">sc:Man</text></g><g class="group"><title>sc:Conversation</title><path id="group1" d="M212.3917978399128,191.10828676840282A285.7142857142857,285.7142857142857 0 0,1 -191.9160375532162,211.66220161166476L-175.79509039874603,193.8825766762849A261.7142857142857,261.7142857142857 0 0,0 194.55088682136014,175.055190679857Z" style="fill: rgb(174, 199, 232);"></path><text dy=".35em" transform="rotate(87.08974321046503)translate(287.7142857142857)">sc:Conversation</text></g><g class="group"><title>sc:Woman</title><path id="group2" d="M-200.22675570805345,203.8182998649826A285.7142857142857,285.7142857142857 0 0,1 -203.05402771172675,-201.00177832862525L-185.99748938394168,-184.11762894902074A261.7142857142857,261.7142857142857 0 0,0 -183.40770822857698,186.69756267632408Z" style="fill: rgb(255, 127, 14);"></path><text dy=".35em" transform="rotate(179.59985156773251)translate(287.7142857142857)rotate(180)" style="text-anchor: end;">sc:Woman</text></g><g class="group"><title>sc:Company</title><path id="group3" d="M-194.85367886180734,-208.96099371711492A285.7142857142857,285.7142857142857 0 0,1 -150.2276362610108,-243.0315007661639L-137.60851481508587,-222.61685470180615A261.7142857142857,261.7142857142857 0 0,0 -178.48596983741552,-191.40827024487726Z" style="fill: rgb(255, 187, 120);"></path><text dy=".35em" transform="rotate(232.63946366017439)translate(287.7142857142857)rotate(180)" style="text-anchor: end;">sc:Company</text></g><g class="group"><title>sc:OnlineConversation</title><path id="group4" d="M-140.38880227341122,-248.84460463803822A285.7142857142857,285.7142857142857 0 0,1 -61.90870758572701,-278.92645085450295L-56.708376148525936,-255.49662898272467A261.7142857142857,261.7142857142857 0 0,0 -128.59614288244467,-227.94165784844301Z" style="fill: rgb(44, 160, 44);"></path><text dy=".35em" transform="rotate(249.0279006495639)translate(287.7142857142857)rotate(180)" style="text-anchor: end;">sc:OnlineConversation</text></g><g class="group"><title>sc:Project</title><path id="group5" d="M-50.7051041661892,-281.17902744109557A285.7142857142857,285.7142857142857 0 0,1 -22.832769705477478,-284.80048751503415L-20.91481705021737,-260.8772465637713A261.7142857142857,261.7142857142857 0 0,0 -46.445875416229306,-257.55998913604355Z" style="fill: rgb(152, 223, 138);"></path><text dy=".35em" transform="rotate(262.59701647718026)translate(287.7142857142857)rotate(180)" style="text-anchor: end;">sc:Project</text></g><g class="group"><title>sc:Email</title><path id="group6" d="M-11.425524053323603,-285.48574476027943A285.7142857142857,285.7142857142857 0 0,1 -11.425524053323603,-285.48574476027943L-10.46578003284442,-261.504942200416A261.7142857142857,261.7142857142857 0 0,0 -10.46578003284442,-261.504942200416Z" style="fill: rgb(214, 39, 40);"></path><text dy=".35em" transform="rotate(267.7081688194768)translate(287.7142857142857)rotate(180)" style="text-anchor: end;">sc:Email</text></g><path class="chord" d="M216.84284479126057,146.53855468705856A261.7142857142857,261.7142857142857 0 0,1 201.39560738409267,167.13520476946553Q 0,0 -10.46578003284442,-261.504942200416Q 0,0 216.84284479126057,146.53855468705856Z" style="fill: rgb(214, 39, 40); fill-opacity: 0.67; stroke: rgb(0, 0, 0); stroke-width: 0.25px; cursor: pointer;"></path><path class="chord" d="M-155.89472427842026,210.21703615333868A261.7142857142857,261.7142857142857 0 0,1 -175.79509039874603,193.8825766762849Q 0,0 -10.46578003284442,-261.504942200416Q 0,0 -155.89472427842026,210.21703615333868Z" style="fill: rgb(214, 39, 40); fill-opacity: 0.67; stroke: rgb(0, 0, 0); stroke-width: 0.25px; cursor: pointer;"></path><path class="chord" d="M-218.41185612861565,-144.1895573520901A261.7142857142857,261.7142857142857 0 0,1 -203.18782544689074,-164.9517351745735Q 0,0 -20.91481705021737,-260.8772465637713Q 0,0 -218.41185612861565,-144.1895573520901Z" style="fill: rgb(152, 223, 138); fill-opacity: 0.67; stroke: rgb(0, 0, 0); stroke-width: 0.25px; cursor: pointer;"></path><path class="chord" d="M-203.18782544689074,-164.9517351745735A261.7142857142857,261.7142857142857 0 0,1 -185.99748938394168,-184.11762894902074Q 0,0 -10.46578003284442,-261.504942200416Q 0,0 -203.18782544689074,-164.9517351745735Z" style="fill: rgb(214, 39, 40); fill-opacity: 0.67; stroke: rgb(0, 0, 0); stroke-width: 0.25px; cursor: pointer;"></path><path class="chord" d="M241.31279318655865,101.30401369856952A261.7142857142857,261.7142857142857 0 0,1 216.84284479126057,146.53855468705856Q 0,0 -20.91481705021737,-260.8772465637713Q 0,0 241.31279318655865,101.30401369856952Z" style="fill: rgb(152, 223, 138); fill-opacity: 0.67; stroke: rgb(0, 0, 0); stroke-width: 0.25px; cursor: pointer;"></path><path class="chord" d="M-81.53757466822918,-248.6885426877598A261.7142857142857,261.7142857142857 0 0,1 -56.708376148525936,-255.49662898272467Q 0,0 -81.53757466822918,-248.6885426877598Z" style="fill: rgb(44, 160, 44); fill-opacity: 0.67; stroke: rgb(0, 0, 0); stroke-width: 0.25px; cursor: pointer;"></path><path class="chord" d="M-46.445875416229306,-257.55998913604355A261.7142857142857,261.7142857142857 0 0,1 -20.91481705021737,-260.8772465637713Q 0,0 -46.445875416229306,-257.55998913604355Z" style="fill: rgb(152, 223, 138); fill-opacity: 0.67; stroke: rgb(0, 0, 0); stroke-width: 0.25px; cursor: pointer;"></path><path class="chord" d="M-250.91634273546967,-74.39997510211343A261.7142857142857,261.7142857142857 0 0,1 -218.41185612861565,-144.1895573520901Q 0,0 -137.60851481508587,-222.61685470180615Q 0,0 -250.91634273546967,-74.39997510211343Z" style="fill: rgb(255, 187, 120); fill-opacity: 0.67; stroke: rgb(0, 0, 0); stroke-width: 0.25px; cursor: pointer;"></path><path class="chord" d="M256.8542916172762,-50.201994230568175A261.7142857142857,261.7142857142857 0 0,1 256.4643350595054,52.157570777639975Q 0,0 -137.60851481508587,-222.61685470180615Q 0,0 256.8542916172762,-50.201994230568175Z" style="fill: rgb(255, 187, 120); fill-opacity: 0.67; stroke: rgb(0, 0, 0); stroke-width: 0.25px; cursor: pointer;"></path><path class="chord" d="M256.4643350595054,52.157570777639975A261.7142857142857,261.7142857142857 0 0,1 241.31279318655865,101.30401369856952Q 0,0 -128.59614288244467,-227.94165784844301A261.7142857142857,261.7142857142857 0 0,1 -81.53757466822918,-248.6885426877598Q 0,0 256.4643350595054,52.157570777639975Z" style="fill: rgb(44, 160, 44); fill-opacity: 0.67; stroke: rgb(0, 0, 0); stroke-width: 0.25px; cursor: pointer;"></path><path class="chord" d="M-178.48596983741552,-191.40827024487726A261.7142857142857,261.7142857142857 0 0,1 -137.60851481508587,-222.61685470180615Q 0,0 -178.48596983741552,-191.40827024487726Z" style="fill: rgb(255, 187, 120); fill-opacity: 0.67; stroke: rgb(0, 0, 0); stroke-width: 0.25px; cursor: pointer;"></path><path class="chord" d="M-261.70790318754473,1.827773541084852A261.7142857142857,261.7142857142857 0 0,1 -250.91634273546967,-74.39997510211343Q 0,0 -261.70790318754473,1.827773541084852Z" style="fill: rgb(255, 127, 14); fill-opacity: 0.67; stroke: rgb(0, 0, 0); stroke-width: 0.25px; cursor: pointer;"></path><path class="chord" d="M217.95306252958468,-144.88212409028836A261.7142857142857,261.7142857142857 0 0,1 256.8542916172762,-50.201994230568175Q 0,0 -249.85269494339363,77.89735667185548A261.7142857142857,261.7142857142857 0 0,1 -261.70790318754473,1.827773541084852Q 0,0 217.95306252958468,-144.88212409028836Z" style="fill: rgb(255, 127, 14); fill-opacity: 0.67; stroke: rgb(0, 0, 0); stroke-width: 0.25px; cursor: pointer;"></path><path class="chord" d="M1.6025378114556795e-14,-261.7142857142857A261.7142857142857,261.7142857142857 0 0,1 123.64595773392766,-230.664354599922Q 0,0 1.6025378114556795e-14,-261.7142857142857Z" style="fill: rgb(31, 119, 180); fill-opacity: 0.67; stroke: rgb(0, 0, 0); stroke-width: 0.25px; cursor: pointer;"></path><path class="chord" d="M123.64595773392766,-230.664354599922A261.7142857142857,261.7142857142857 0 0,1 217.95306252958468,-144.88212409028836Q 0,0 194.55088682136014,175.055190679857A261.7142857142857,261.7142857142857 0 0,1 88.76507437941962,246.2013990970703Q 0,0 123.64595773392766,-230.664354599922Z" style="fill: rgb(174, 199, 232); fill-opacity: 0.67; stroke: rgb(0, 0, 0); stroke-width: 0.25px; cursor: pointer;"></path><path class="chord" d="M88.76507437941962,246.2013990970703A261.7142857142857,261.7142857142857 0 0,1 -38.083015479438465,258.92866059772456Q 0,0 88.76507437941962,246.2013990970703Z" style="fill: rgb(174, 199, 232); fill-opacity: 0.67; stroke: rgb(0, 0, 0); stroke-width: 0.25px; cursor: pointer;"></path><path class="chord" d="M-38.083015479438465,258.92866059772456A261.7142857142857,261.7142857142857 0 0,1 -155.89472427842026,210.21703615333868Q 0,0 -183.40770822857698,186.69756267632408A261.7142857142857,261.7142857142857 0 0,1 -249.85269494339363,77.89735667185548Q 0,0 -38.083015479438465,258.92866059772456Z" style="fill: rgb(255, 127, 14); fill-opacity: 0.67; stroke: rgb(0, 0, 0); stroke-width: 0.25px; cursor: pointer;"></path></g></svg>